<svg id="Capa_1" enable-background="new 0 0 512 512" height="512" viewBox="0 0 512 512" width="512"
     xmlns="http://www.w3.org/2000/svg">
    <g>
        <path d="m194.517 261.003c-15.309 1.457-30.146 8.665-41.778 20.298l-29.671 29.671c-24.784 24.783-27.461 62.433-5.967 83.928 9.746 9.746 22.812 14.522 36.495 14.521 16.495 0 33.887-6.942 47.433-20.488l29.671-29.671c24.784-24.784 27.46-62.433 5.966-83.927-10.801-10.8-25.769-15.888-42.149-14.332zm14.97 77.046-29.671 29.671c-12.866 12.866-31.87 15.597-41.502 5.966-9.631-9.631-6.898-28.636 5.967-41.5l29.671-29.671c6.713-6.713 15.025-10.849 23.407-11.646.945-.09 1.876-.134 2.79-.134 6.147 0 11.51 2.02 15.304 5.813 9.63 9.631 6.899 28.636-5.966 41.501z"/>
        <path d="m507.607 62.335-57.942-57.941c-5.857-5.858-15.355-5.858-21.213 0l-68.354 68.354-22.252 22.252c-19.328 19.328-45.013 30.576-72.324 31.674-29.923 1.203-58.063 13.527-79.237 34.702l-181.891 181.891c-5.858 5.858-5.858 15.355 0 21.213l143.127 143.127c2.929 2.929 6.768 4.394 10.606 4.394s7.678-1.464 10.606-4.394l181.891-181.891c21.175-21.175 33.499-49.316 34.702-79.237 1.098-27.312 12.346-52.997 31.673-72.323l22.254-22.253c.002-.002.003-.004.005-.005l68.349-68.349c5.858-5.859 5.858-15.356 0-21.214zm-178.196 242.168-171.284 171.284-121.914-121.914 171.284-171.284c12.093-12.093 27.229-20.307 43.673-23.92v87.161c0 8.284 6.716 15 15 15h87.161c-3.612 16.444-11.827 31.58-23.92 43.673zm66.375-151.561c-21.234 21.234-34.821 48.481-39.093 77.888h-75.523v-75.524c29.406-4.271 56.654-17.858 77.889-39.093l11.646-11.646 36.729 36.728zm32.861-32.86-36.729-36.728 47.141-47.14 36.729 36.728z"/>
    </g>
</svg>