<svg id="Capa_1" enable-background="new 0 0 512 512" height="512" viewBox="0 0 512 512" width="512"
     xmlns="http://www.w3.org/2000/svg">
    <g>
        <path d="m437.02 74.98c-48.353-48.351-112.64-74.98-181.02-74.98s-132.667 26.629-181.02 74.98c-48.351 48.353-74.98 112.64-74.98 181.02s26.629 132.667 74.98 181.02c48.353 48.351 112.64 74.98 181.02 74.98s132.667-26.629 181.02-74.98c48.351-48.353 74.98-112.64 74.98-181.02s-26.629-132.667-74.98-181.02zm-181.02 407.02c-124.617 0-226-101.383-226-226s101.383-226 226-226 226 101.383 226 226-101.383 226-226 226z"/>
        <path d="m183.246 131h-47.023c-8.284 0-15 6.716-15 15s6.716 15 15 15h32.023v205c0 8.284 6.716 15 15 15s15-6.716 15-15v-220c0-8.284-6.716-15-15-15z"/>
        <path d="m309.512 218.469c-10.531 0-18.85.812-26.165 2.332l9.907-59.801h68.684c8.284 0 15-6.716 15-15s-6.716-15-15-15h-81.403c-7.338 0-13.599 5.309-14.798 12.548l-16.126 97.334c-.925 5.584 1.39 11.206 5.958 14.548 4.569 3.342 10.647 3.819 15.69 1.248 10.838-5.032 18.299-8.135 38.253-8.209 14.188 0 27.391 5.676 37.175 15.981 9.778 10.299 14.757 23.806 14.018 38.032-1.383 26.662-23.402 47.968-50.128 48.507-25.99.543-48.255-18.429-51.835-44.087-.329-2.354-.496-4.766-.496-7.167 0-8.284-6.716-15-15-15s-15 6.716-15 15c0 3.786.264 7.593.784 11.315 5.603 40.151 40.047 69.953 80.49 69.95.551 0 1.108-.005 1.661-.017 42.375-.854 77.289-34.653 79.484-76.946 1.169-22.524-6.723-43.918-22.222-60.243-15.505-16.331-36.434-25.325-58.931-25.325z"/>
    </g>
</svg>