<svg id="Capa_1" enable-background="new 0 0 512 512" height="512" viewBox="0 0 512 512" width="512"
     xmlns="http://www.w3.org/2000/svg">
    <g>
        <path d="m437.02 74.98c-48.353-48.351-112.64-74.98-181.02-74.98s-132.667 26.629-181.02 74.98c-48.351 48.353-74.98 112.64-74.98 181.02s26.629 132.667 74.98 181.02c48.353 48.351 112.64 74.98 181.02 74.98s132.667-26.629 181.02-74.98c48.351-48.353 74.98-112.64 74.98-181.02s-26.629-132.667-74.98-181.02zm-181.02 407.02c-124.617 0-226-101.383-226-226s101.383-226 226-226 226 101.383 226 226-101.383 226-226 226z"/>
        <path d="m188.388 131h-47.023c-8.284 0-15 6.716-15 15s6.716 15 15 15h32.023v205c0 8.284 6.716 15 15 15s15-6.716 15-15v-220c0-8.284-6.716-15-15-15z"/>
        <path d="m309.512 131c-41.975 0-76.124 34.149-76.124 76.124v97.752c0 41.975 34.149 76.124 76.124 76.124s76.124-34.149 76.124-76.124v-97.752c0-41.975-34.15-76.124-76.124-76.124zm46.124 173.876c0 25.433-20.691 46.124-46.124 46.124s-46.124-20.691-46.124-46.124v-97.752c0-25.433 20.691-46.124 46.124-46.124s46.124 20.691 46.124 46.124z"/>
    </g>
</svg>